%TF.GenerationSoftware,KiCad,Pcbnew,5.1.7-a382d34a8~88~ubuntu18.04.1*%
%TF.CreationDate,2021-02-15T16:22:20+09:00*%
%TF.ProjectId,atmega328p,61746d65-6761-4333-9238-702e6b696361,rev?*%
%TF.SameCoordinates,Original*%
%TF.FileFunction,Soldermask,Top*%
%TF.FilePolarity,Negative*%
%FSLAX46Y46*%
G04 Gerber Fmt 4.6, Leading zero omitted, Abs format (unit mm)*
G04 Created by KiCad (PCBNEW 5.1.7-a382d34a8~88~ubuntu18.04.1) date 2021-02-15 16:22:20*
%MOMM*%
%LPD*%
G01*
G04 APERTURE LIST*
%ADD10R,1.700000X1.700000*%
%ADD11O,1.700000X1.700000*%
G04 APERTURE END LIST*
D10*
%TO.C,J1*%
X63000000Y-52160000D03*
D11*
X63000000Y-54700000D03*
X63000000Y-57240000D03*
X63000000Y-59780000D03*
X63000000Y-62320000D03*
X63000000Y-64860000D03*
X63000000Y-67400000D03*
X63000000Y-69940000D03*
X63000000Y-72480000D03*
X63000000Y-75020000D03*
X63000000Y-77560000D03*
X63000000Y-80100000D03*
X63000000Y-82640000D03*
X63000000Y-85180000D03*
X63000000Y-87720000D03*
%TD*%
D10*
%TO.C,J2*%
X65000000Y-43000000D03*
D11*
X67540000Y-43000000D03*
%TD*%
%TO.C,J3*%
X78220000Y-87720000D03*
X78220000Y-85180000D03*
X78220000Y-82640000D03*
X78220000Y-80100000D03*
X78220000Y-77560000D03*
X78220000Y-75020000D03*
X78220000Y-72480000D03*
X78220000Y-69940000D03*
X78220000Y-67400000D03*
X78220000Y-64860000D03*
X78220000Y-62320000D03*
X78220000Y-59780000D03*
X78220000Y-57240000D03*
X78220000Y-54700000D03*
D10*
X78220000Y-52160000D03*
%TD*%
%TO.C,J4*%
X82000000Y-43000000D03*
D11*
X84540000Y-43000000D03*
X87080000Y-43000000D03*
%TD*%
%TO.C,J5*%
X97000000Y-46540000D03*
D10*
X97000000Y-44000000D03*
%TD*%
%TO.C,J6*%
X97000000Y-53000000D03*
D11*
X97000000Y-55540000D03*
%TD*%
D10*
%TO.C,J7*%
X97000000Y-62000000D03*
D11*
X97000000Y-64540000D03*
X97000000Y-67080000D03*
X97000000Y-69620000D03*
X97000000Y-72160000D03*
%TD*%
D10*
%TO.C,J8*%
X97000000Y-80000000D03*
D11*
X97000000Y-82540000D03*
%TD*%
%TO.C,J9*%
X97000000Y-92540000D03*
D10*
X97000000Y-90000000D03*
%TD*%
%TO.C,R1*%
G36*
G01*
X92910000Y-79910000D02*
X92910000Y-80110000D01*
G75*
G02*
X92810000Y-80210000I-100000J0D01*
G01*
X92375000Y-80210000D01*
G75*
G02*
X92275000Y-80110000I0J100000D01*
G01*
X92275000Y-79910000D01*
G75*
G02*
X92375000Y-79810000I100000J0D01*
G01*
X92810000Y-79810000D01*
G75*
G02*
X92910000Y-79910000I0J-100000D01*
G01*
G37*
G36*
G01*
X93725000Y-79910000D02*
X93725000Y-80110000D01*
G75*
G02*
X93625000Y-80210000I-100000J0D01*
G01*
X93190000Y-80210000D01*
G75*
G02*
X93090000Y-80110000I0J100000D01*
G01*
X93090000Y-79910000D01*
G75*
G02*
X93190000Y-79810000I100000J0D01*
G01*
X93625000Y-79810000D01*
G75*
G02*
X93725000Y-79910000I0J-100000D01*
G01*
G37*
%TD*%
%TO.C,R2*%
G36*
G01*
X93725000Y-89890000D02*
X93725000Y-90090000D01*
G75*
G02*
X93625000Y-90190000I-100000J0D01*
G01*
X93190000Y-90190000D01*
G75*
G02*
X93090000Y-90090000I0J100000D01*
G01*
X93090000Y-89890000D01*
G75*
G02*
X93190000Y-89790000I100000J0D01*
G01*
X93625000Y-89790000D01*
G75*
G02*
X93725000Y-89890000I0J-100000D01*
G01*
G37*
G36*
G01*
X92910000Y-89890000D02*
X92910000Y-90090000D01*
G75*
G02*
X92810000Y-90190000I-100000J0D01*
G01*
X92375000Y-90190000D01*
G75*
G02*
X92275000Y-90090000I0J100000D01*
G01*
X92275000Y-89890000D01*
G75*
G02*
X92375000Y-89790000I100000J0D01*
G01*
X92810000Y-89790000D01*
G75*
G02*
X92910000Y-89890000I0J-100000D01*
G01*
G37*
%TD*%
%TO.C,R3*%
G36*
G01*
X92910000Y-46440000D02*
X92910000Y-46640000D01*
G75*
G02*
X92810000Y-46740000I-100000J0D01*
G01*
X92375000Y-46740000D01*
G75*
G02*
X92275000Y-46640000I0J100000D01*
G01*
X92275000Y-46440000D01*
G75*
G02*
X92375000Y-46340000I100000J0D01*
G01*
X92810000Y-46340000D01*
G75*
G02*
X92910000Y-46440000I0J-100000D01*
G01*
G37*
G36*
G01*
X93725000Y-46440000D02*
X93725000Y-46640000D01*
G75*
G02*
X93625000Y-46740000I-100000J0D01*
G01*
X93190000Y-46740000D01*
G75*
G02*
X93090000Y-46640000I0J100000D01*
G01*
X93090000Y-46440000D01*
G75*
G02*
X93190000Y-46340000I100000J0D01*
G01*
X93625000Y-46340000D01*
G75*
G02*
X93725000Y-46440000I0J-100000D01*
G01*
G37*
%TD*%
%TO.C,R4*%
G36*
G01*
X93725000Y-55420000D02*
X93725000Y-55620000D01*
G75*
G02*
X93625000Y-55720000I-100000J0D01*
G01*
X93190000Y-55720000D01*
G75*
G02*
X93090000Y-55620000I0J100000D01*
G01*
X93090000Y-55420000D01*
G75*
G02*
X93190000Y-55320000I100000J0D01*
G01*
X93625000Y-55320000D01*
G75*
G02*
X93725000Y-55420000I0J-100000D01*
G01*
G37*
G36*
G01*
X92910000Y-55420000D02*
X92910000Y-55620000D01*
G75*
G02*
X92810000Y-55720000I-100000J0D01*
G01*
X92375000Y-55720000D01*
G75*
G02*
X92275000Y-55620000I0J100000D01*
G01*
X92275000Y-55420000D01*
G75*
G02*
X92375000Y-55320000I100000J0D01*
G01*
X92810000Y-55320000D01*
G75*
G02*
X92910000Y-55420000I0J-100000D01*
G01*
G37*
%TD*%
%TO.C,R5*%
G36*
G01*
X93725000Y-72060000D02*
X93725000Y-72260000D01*
G75*
G02*
X93625000Y-72360000I-100000J0D01*
G01*
X93190000Y-72360000D01*
G75*
G02*
X93090000Y-72260000I0J100000D01*
G01*
X93090000Y-72060000D01*
G75*
G02*
X93190000Y-71960000I100000J0D01*
G01*
X93625000Y-71960000D01*
G75*
G02*
X93725000Y-72060000I0J-100000D01*
G01*
G37*
G36*
G01*
X92910000Y-72060000D02*
X92910000Y-72260000D01*
G75*
G02*
X92810000Y-72360000I-100000J0D01*
G01*
X92375000Y-72360000D01*
G75*
G02*
X92275000Y-72260000I0J100000D01*
G01*
X92275000Y-72060000D01*
G75*
G02*
X92375000Y-71960000I100000J0D01*
G01*
X92810000Y-71960000D01*
G75*
G02*
X92910000Y-72060000I0J-100000D01*
G01*
G37*
%TD*%
%TO.C,J10*%
X65000000Y-97000000D03*
D11*
X67540000Y-97000000D03*
X70080000Y-97000000D03*
X72620000Y-97000000D03*
X75160000Y-97000000D03*
%TD*%
D10*
%TO.C,J11*%
X91000000Y-97000000D03*
D11*
X88460000Y-97000000D03*
X85920000Y-97000000D03*
X83380000Y-97000000D03*
%TD*%
%TO.C,R6*%
G36*
G01*
X67000000Y-91275000D02*
X67200000Y-91275000D01*
G75*
G02*
X67300000Y-91375000I0J-100000D01*
G01*
X67300000Y-91810000D01*
G75*
G02*
X67200000Y-91910000I-100000J0D01*
G01*
X67000000Y-91910000D01*
G75*
G02*
X66900000Y-91810000I0J100000D01*
G01*
X66900000Y-91375000D01*
G75*
G02*
X67000000Y-91275000I100000J0D01*
G01*
G37*
G36*
G01*
X67000000Y-92090000D02*
X67200000Y-92090000D01*
G75*
G02*
X67300000Y-92190000I0J-100000D01*
G01*
X67300000Y-92625000D01*
G75*
G02*
X67200000Y-92725000I-100000J0D01*
G01*
X67000000Y-92725000D01*
G75*
G02*
X66900000Y-92625000I0J100000D01*
G01*
X66900000Y-92190000D01*
G75*
G02*
X67000000Y-92090000I100000J0D01*
G01*
G37*
%TD*%
%TO.C,R7*%
G36*
G01*
X68500000Y-92090000D02*
X68700000Y-92090000D01*
G75*
G02*
X68800000Y-92190000I0J-100000D01*
G01*
X68800000Y-92625000D01*
G75*
G02*
X68700000Y-92725000I-100000J0D01*
G01*
X68500000Y-92725000D01*
G75*
G02*
X68400000Y-92625000I0J100000D01*
G01*
X68400000Y-92190000D01*
G75*
G02*
X68500000Y-92090000I100000J0D01*
G01*
G37*
G36*
G01*
X68500000Y-91275000D02*
X68700000Y-91275000D01*
G75*
G02*
X68800000Y-91375000I0J-100000D01*
G01*
X68800000Y-91810000D01*
G75*
G02*
X68700000Y-91910000I-100000J0D01*
G01*
X68500000Y-91910000D01*
G75*
G02*
X68400000Y-91810000I0J100000D01*
G01*
X68400000Y-91375000D01*
G75*
G02*
X68500000Y-91275000I100000J0D01*
G01*
G37*
%TD*%
%TO.C,R8*%
G36*
G01*
X69900000Y-91275000D02*
X70100000Y-91275000D01*
G75*
G02*
X70200000Y-91375000I0J-100000D01*
G01*
X70200000Y-91810000D01*
G75*
G02*
X70100000Y-91910000I-100000J0D01*
G01*
X69900000Y-91910000D01*
G75*
G02*
X69800000Y-91810000I0J100000D01*
G01*
X69800000Y-91375000D01*
G75*
G02*
X69900000Y-91275000I100000J0D01*
G01*
G37*
G36*
G01*
X69900000Y-92090000D02*
X70100000Y-92090000D01*
G75*
G02*
X70200000Y-92190000I0J-100000D01*
G01*
X70200000Y-92625000D01*
G75*
G02*
X70100000Y-92725000I-100000J0D01*
G01*
X69900000Y-92725000D01*
G75*
G02*
X69800000Y-92625000I0J100000D01*
G01*
X69800000Y-92190000D01*
G75*
G02*
X69900000Y-92090000I100000J0D01*
G01*
G37*
%TD*%
%TO.C,R9*%
G36*
G01*
X71400000Y-92090000D02*
X71600000Y-92090000D01*
G75*
G02*
X71700000Y-92190000I0J-100000D01*
G01*
X71700000Y-92625000D01*
G75*
G02*
X71600000Y-92725000I-100000J0D01*
G01*
X71400000Y-92725000D01*
G75*
G02*
X71300000Y-92625000I0J100000D01*
G01*
X71300000Y-92190000D01*
G75*
G02*
X71400000Y-92090000I100000J0D01*
G01*
G37*
G36*
G01*
X71400000Y-91275000D02*
X71600000Y-91275000D01*
G75*
G02*
X71700000Y-91375000I0J-100000D01*
G01*
X71700000Y-91810000D01*
G75*
G02*
X71600000Y-91910000I-100000J0D01*
G01*
X71400000Y-91910000D01*
G75*
G02*
X71300000Y-91810000I0J100000D01*
G01*
X71300000Y-91375000D01*
G75*
G02*
X71400000Y-91275000I100000J0D01*
G01*
G37*
%TD*%
%TO.C,R10*%
G36*
G01*
X88370000Y-91775000D02*
X88570000Y-91775000D01*
G75*
G02*
X88670000Y-91875000I0J-100000D01*
G01*
X88670000Y-92310000D01*
G75*
G02*
X88570000Y-92410000I-100000J0D01*
G01*
X88370000Y-92410000D01*
G75*
G02*
X88270000Y-92310000I0J100000D01*
G01*
X88270000Y-91875000D01*
G75*
G02*
X88370000Y-91775000I100000J0D01*
G01*
G37*
G36*
G01*
X88370000Y-92590000D02*
X88570000Y-92590000D01*
G75*
G02*
X88670000Y-92690000I0J-100000D01*
G01*
X88670000Y-93125000D01*
G75*
G02*
X88570000Y-93225000I-100000J0D01*
G01*
X88370000Y-93225000D01*
G75*
G02*
X88270000Y-93125000I0J100000D01*
G01*
X88270000Y-92690000D01*
G75*
G02*
X88370000Y-92590000I100000J0D01*
G01*
G37*
%TD*%
%TO.C,R11*%
G36*
G01*
X90900000Y-92590000D02*
X91100000Y-92590000D01*
G75*
G02*
X91200000Y-92690000I0J-100000D01*
G01*
X91200000Y-93125000D01*
G75*
G02*
X91100000Y-93225000I-100000J0D01*
G01*
X90900000Y-93225000D01*
G75*
G02*
X90800000Y-93125000I0J100000D01*
G01*
X90800000Y-92690000D01*
G75*
G02*
X90900000Y-92590000I100000J0D01*
G01*
G37*
G36*
G01*
X90900000Y-91775000D02*
X91100000Y-91775000D01*
G75*
G02*
X91200000Y-91875000I0J-100000D01*
G01*
X91200000Y-92310000D01*
G75*
G02*
X91100000Y-92410000I-100000J0D01*
G01*
X90900000Y-92410000D01*
G75*
G02*
X90800000Y-92310000I0J100000D01*
G01*
X90800000Y-91875000D01*
G75*
G02*
X90900000Y-91775000I100000J0D01*
G01*
G37*
%TD*%
M02*
