%TF.GenerationSoftware,KiCad,Pcbnew,5.1.7-a382d34a8~88~ubuntu18.04.1*%
%TF.CreationDate,2021-02-15T16:22:20+09:00*%
%TF.ProjectId,atmega328p,61746d65-6761-4333-9238-702e6b696361,rev?*%
%TF.SameCoordinates,Original*%
%TF.FileFunction,Soldermask,Bot*%
%TF.FilePolarity,Negative*%
%FSLAX46Y46*%
G04 Gerber Fmt 4.6, Leading zero omitted, Abs format (unit mm)*
G04 Created by KiCad (PCBNEW 5.1.7-a382d34a8~88~ubuntu18.04.1) date 2021-02-15 16:22:20*
%MOMM*%
%LPD*%
G01*
G04 APERTURE LIST*
%ADD10R,1.700000X1.700000*%
%ADD11O,1.700000X1.700000*%
G04 APERTURE END LIST*
D10*
%TO.C,J1*%
X63000000Y-52160000D03*
D11*
X63000000Y-54700000D03*
X63000000Y-57240000D03*
X63000000Y-59780000D03*
X63000000Y-62320000D03*
X63000000Y-64860000D03*
X63000000Y-67400000D03*
X63000000Y-69940000D03*
X63000000Y-72480000D03*
X63000000Y-75020000D03*
X63000000Y-77560000D03*
X63000000Y-80100000D03*
X63000000Y-82640000D03*
X63000000Y-85180000D03*
X63000000Y-87720000D03*
%TD*%
D10*
%TO.C,J2*%
X65000000Y-43000000D03*
D11*
X67540000Y-43000000D03*
%TD*%
%TO.C,J3*%
X78220000Y-87720000D03*
X78220000Y-85180000D03*
X78220000Y-82640000D03*
X78220000Y-80100000D03*
X78220000Y-77560000D03*
X78220000Y-75020000D03*
X78220000Y-72480000D03*
X78220000Y-69940000D03*
X78220000Y-67400000D03*
X78220000Y-64860000D03*
X78220000Y-62320000D03*
X78220000Y-59780000D03*
X78220000Y-57240000D03*
X78220000Y-54700000D03*
D10*
X78220000Y-52160000D03*
%TD*%
%TO.C,J4*%
X82000000Y-43000000D03*
D11*
X84540000Y-43000000D03*
X87080000Y-43000000D03*
%TD*%
%TO.C,J5*%
X97000000Y-46540000D03*
D10*
X97000000Y-44000000D03*
%TD*%
%TO.C,J6*%
X97000000Y-53000000D03*
D11*
X97000000Y-55540000D03*
%TD*%
D10*
%TO.C,J7*%
X97000000Y-62000000D03*
D11*
X97000000Y-64540000D03*
X97000000Y-67080000D03*
X97000000Y-69620000D03*
X97000000Y-72160000D03*
%TD*%
D10*
%TO.C,J8*%
X97000000Y-80000000D03*
D11*
X97000000Y-82540000D03*
%TD*%
%TO.C,J9*%
X97000000Y-92540000D03*
D10*
X97000000Y-90000000D03*
%TD*%
%TO.C,J10*%
X65000000Y-97000000D03*
D11*
X67540000Y-97000000D03*
X70080000Y-97000000D03*
X72620000Y-97000000D03*
X75160000Y-97000000D03*
%TD*%
D10*
%TO.C,J11*%
X91000000Y-97000000D03*
D11*
X88460000Y-97000000D03*
X85920000Y-97000000D03*
X83380000Y-97000000D03*
%TD*%
M02*
