%TF.GenerationSoftware,KiCad,Pcbnew,5.1.7-a382d34a8~88~ubuntu18.04.1*%
%TF.CreationDate,2021-02-15T20:29:51+09:00*%
%TF.ProjectId,atmega328p,61746d65-6761-4333-9238-702e6b696361,rev?*%
%TF.SameCoordinates,Original*%
%TF.FileFunction,Legend,Top*%
%TF.FilePolarity,Positive*%
%FSLAX46Y46*%
G04 Gerber Fmt 4.6, Leading zero omitted, Abs format (unit mm)*
G04 Created by KiCad (PCBNEW 5.1.7-a382d34a8~88~ubuntu18.04.1) date 2021-02-15 20:29:51*
%MOMM*%
%LPD*%
G01*
G04 APERTURE LIST*
%ADD10C,0.150000*%
%ADD11C,0.120000*%
G04 APERTURE END LIST*
D10*
X76238095Y-45000000D02*
X76142857Y-44952380D01*
X76000000Y-44952380D01*
X75857142Y-45000000D01*
X75761904Y-45095238D01*
X75714285Y-45190476D01*
X75666666Y-45380952D01*
X75666666Y-45523809D01*
X75714285Y-45714285D01*
X75761904Y-45809523D01*
X75857142Y-45904761D01*
X76000000Y-45952380D01*
X76095238Y-45952380D01*
X76238095Y-45904761D01*
X76285714Y-45857142D01*
X76285714Y-45523809D01*
X76095238Y-45523809D01*
X76714285Y-45952380D02*
X76714285Y-44952380D01*
X77285714Y-45952380D01*
X77285714Y-44952380D01*
X77761904Y-45952380D02*
X77761904Y-44952380D01*
X78000000Y-44952380D01*
X78142857Y-45000000D01*
X78238095Y-45095238D01*
X78285714Y-45190476D01*
X78333333Y-45380952D01*
X78333333Y-45523809D01*
X78285714Y-45714285D01*
X78238095Y-45809523D01*
X78142857Y-45904761D01*
X78000000Y-45952380D01*
X77761904Y-45952380D01*
X71395238Y-44952380D02*
X71728571Y-45952380D01*
X72061904Y-44952380D01*
X72395238Y-45952380D02*
X72395238Y-44952380D01*
X72776190Y-44952380D01*
X72871428Y-45000000D01*
X72919047Y-45047619D01*
X72966666Y-45142857D01*
X72966666Y-45285714D01*
X72919047Y-45380952D01*
X72871428Y-45428571D01*
X72776190Y-45476190D01*
X72395238Y-45476190D01*
X73300000Y-44952380D02*
X73538095Y-45952380D01*
X73728571Y-45238095D01*
X73919047Y-45952380D01*
X74157142Y-44952380D01*
X75109523Y-45952380D02*
X74776190Y-45476190D01*
X74538095Y-45952380D02*
X74538095Y-44952380D01*
X74919047Y-44952380D01*
X75014285Y-45000000D01*
X75061904Y-45047619D01*
X75109523Y-45142857D01*
X75109523Y-45285714D01*
X75061904Y-45380952D01*
X75014285Y-45428571D01*
X74919047Y-45476190D01*
X74538095Y-45476190D01*
X74795238Y-94328571D02*
X74938095Y-94376190D01*
X74985714Y-94423809D01*
X75033333Y-94519047D01*
X75033333Y-94661904D01*
X74985714Y-94757142D01*
X74938095Y-94804761D01*
X74842857Y-94852380D01*
X74461904Y-94852380D01*
X74461904Y-93852380D01*
X74795238Y-93852380D01*
X74890476Y-93900000D01*
X74938095Y-93947619D01*
X74985714Y-94042857D01*
X74985714Y-94138095D01*
X74938095Y-94233333D01*
X74890476Y-94280952D01*
X74795238Y-94328571D01*
X74461904Y-94328571D01*
X75652380Y-93852380D02*
X75747619Y-93852380D01*
X75842857Y-93900000D01*
X75890476Y-93947619D01*
X75938095Y-94042857D01*
X75985714Y-94233333D01*
X75985714Y-94471428D01*
X75938095Y-94661904D01*
X75890476Y-94757142D01*
X75842857Y-94804761D01*
X75747619Y-94852380D01*
X75652380Y-94852380D01*
X75557142Y-94804761D01*
X75509523Y-94757142D01*
X75461904Y-94661904D01*
X75414285Y-94471428D01*
X75414285Y-94233333D01*
X75461904Y-94042857D01*
X75509523Y-93947619D01*
X75557142Y-93900000D01*
X75652380Y-93852380D01*
X72195238Y-94328571D02*
X72338095Y-94376190D01*
X72385714Y-94423809D01*
X72433333Y-94519047D01*
X72433333Y-94661904D01*
X72385714Y-94757142D01*
X72338095Y-94804761D01*
X72242857Y-94852380D01*
X71861904Y-94852380D01*
X71861904Y-93852380D01*
X72195238Y-93852380D01*
X72290476Y-93900000D01*
X72338095Y-93947619D01*
X72385714Y-94042857D01*
X72385714Y-94138095D01*
X72338095Y-94233333D01*
X72290476Y-94280952D01*
X72195238Y-94328571D01*
X71861904Y-94328571D01*
X73385714Y-94852380D02*
X72814285Y-94852380D01*
X73100000Y-94852380D02*
X73100000Y-93852380D01*
X73004761Y-93995238D01*
X72909523Y-94090476D01*
X72814285Y-94138095D01*
X69695238Y-94328571D02*
X69838095Y-94376190D01*
X69885714Y-94423809D01*
X69933333Y-94519047D01*
X69933333Y-94661904D01*
X69885714Y-94757142D01*
X69838095Y-94804761D01*
X69742857Y-94852380D01*
X69361904Y-94852380D01*
X69361904Y-93852380D01*
X69695238Y-93852380D01*
X69790476Y-93900000D01*
X69838095Y-93947619D01*
X69885714Y-94042857D01*
X69885714Y-94138095D01*
X69838095Y-94233333D01*
X69790476Y-94280952D01*
X69695238Y-94328571D01*
X69361904Y-94328571D01*
X70314285Y-93947619D02*
X70361904Y-93900000D01*
X70457142Y-93852380D01*
X70695238Y-93852380D01*
X70790476Y-93900000D01*
X70838095Y-93947619D01*
X70885714Y-94042857D01*
X70885714Y-94138095D01*
X70838095Y-94280952D01*
X70266666Y-94852380D01*
X70885714Y-94852380D01*
X67195238Y-94328571D02*
X67338095Y-94376190D01*
X67385714Y-94423809D01*
X67433333Y-94519047D01*
X67433333Y-94661904D01*
X67385714Y-94757142D01*
X67338095Y-94804761D01*
X67242857Y-94852380D01*
X66861904Y-94852380D01*
X66861904Y-93852380D01*
X67195238Y-93852380D01*
X67290476Y-93900000D01*
X67338095Y-93947619D01*
X67385714Y-94042857D01*
X67385714Y-94138095D01*
X67338095Y-94233333D01*
X67290476Y-94280952D01*
X67195238Y-94328571D01*
X66861904Y-94328571D01*
X67766666Y-93852380D02*
X68385714Y-93852380D01*
X68052380Y-94233333D01*
X68195238Y-94233333D01*
X68290476Y-94280952D01*
X68338095Y-94328571D01*
X68385714Y-94423809D01*
X68385714Y-94661904D01*
X68338095Y-94757142D01*
X68290476Y-94804761D01*
X68195238Y-94852380D01*
X67909523Y-94852380D01*
X67814285Y-94804761D01*
X67766666Y-94757142D01*
X63638095Y-93900000D02*
X63542857Y-93852380D01*
X63400000Y-93852380D01*
X63257142Y-93900000D01*
X63161904Y-93995238D01*
X63114285Y-94090476D01*
X63066666Y-94280952D01*
X63066666Y-94423809D01*
X63114285Y-94614285D01*
X63161904Y-94709523D01*
X63257142Y-94804761D01*
X63400000Y-94852380D01*
X63495238Y-94852380D01*
X63638095Y-94804761D01*
X63685714Y-94757142D01*
X63685714Y-94423809D01*
X63495238Y-94423809D01*
X64114285Y-94852380D02*
X64114285Y-93852380D01*
X64685714Y-94852380D01*
X64685714Y-93852380D01*
X65161904Y-94852380D02*
X65161904Y-93852380D01*
X65400000Y-93852380D01*
X65542857Y-93900000D01*
X65638095Y-93995238D01*
X65685714Y-94090476D01*
X65733333Y-94280952D01*
X65733333Y-94423809D01*
X65685714Y-94614285D01*
X65638095Y-94709523D01*
X65542857Y-94804761D01*
X65400000Y-94852380D01*
X65161904Y-94852380D01*
X90709523Y-94804761D02*
X90852380Y-94852380D01*
X91090476Y-94852380D01*
X91185714Y-94804761D01*
X91233333Y-94757142D01*
X91280952Y-94661904D01*
X91280952Y-94566666D01*
X91233333Y-94471428D01*
X91185714Y-94423809D01*
X91090476Y-94376190D01*
X90900000Y-94328571D01*
X90804761Y-94280952D01*
X90757142Y-94233333D01*
X90709523Y-94138095D01*
X90709523Y-94042857D01*
X90757142Y-93947619D01*
X90804761Y-93900000D01*
X90900000Y-93852380D01*
X91138095Y-93852380D01*
X91280952Y-93900000D01*
X92280952Y-94757142D02*
X92233333Y-94804761D01*
X92090476Y-94852380D01*
X91995238Y-94852380D01*
X91852380Y-94804761D01*
X91757142Y-94709523D01*
X91709523Y-94614285D01*
X91661904Y-94423809D01*
X91661904Y-94280952D01*
X91709523Y-94090476D01*
X91757142Y-93995238D01*
X91852380Y-93900000D01*
X91995238Y-93852380D01*
X92090476Y-93852380D01*
X92233333Y-93900000D01*
X92280952Y-93947619D01*
X93185714Y-94852380D02*
X92709523Y-94852380D01*
X92709523Y-93852380D01*
X87785714Y-94804761D02*
X87928571Y-94852380D01*
X88166666Y-94852380D01*
X88261904Y-94804761D01*
X88309523Y-94757142D01*
X88357142Y-94661904D01*
X88357142Y-94566666D01*
X88309523Y-94471428D01*
X88261904Y-94423809D01*
X88166666Y-94376190D01*
X87976190Y-94328571D01*
X87880952Y-94280952D01*
X87833333Y-94233333D01*
X87785714Y-94138095D01*
X87785714Y-94042857D01*
X87833333Y-93947619D01*
X87880952Y-93900000D01*
X87976190Y-93852380D01*
X88214285Y-93852380D01*
X88357142Y-93900000D01*
X88785714Y-94852380D02*
X88785714Y-93852380D01*
X89023809Y-93852380D01*
X89166666Y-93900000D01*
X89261904Y-93995238D01*
X89309523Y-94090476D01*
X89357142Y-94280952D01*
X89357142Y-94423809D01*
X89309523Y-94614285D01*
X89261904Y-94709523D01*
X89166666Y-94804761D01*
X89023809Y-94852380D01*
X88785714Y-94852380D01*
X89738095Y-94566666D02*
X90214285Y-94566666D01*
X89642857Y-94852380D02*
X89976190Y-93852380D01*
X90309523Y-94852380D01*
X85138095Y-93900000D02*
X85042857Y-93852380D01*
X84900000Y-93852380D01*
X84757142Y-93900000D01*
X84661904Y-93995238D01*
X84614285Y-94090476D01*
X84566666Y-94280952D01*
X84566666Y-94423809D01*
X84614285Y-94614285D01*
X84661904Y-94709523D01*
X84757142Y-94804761D01*
X84900000Y-94852380D01*
X84995238Y-94852380D01*
X85138095Y-94804761D01*
X85185714Y-94757142D01*
X85185714Y-94423809D01*
X84995238Y-94423809D01*
X85614285Y-94852380D02*
X85614285Y-93852380D01*
X86185714Y-94852380D01*
X86185714Y-93852380D01*
X86661904Y-94852380D02*
X86661904Y-93852380D01*
X86900000Y-93852380D01*
X87042857Y-93900000D01*
X87138095Y-93995238D01*
X87185714Y-94090476D01*
X87233333Y-94280952D01*
X87233333Y-94423809D01*
X87185714Y-94614285D01*
X87138095Y-94709523D01*
X87042857Y-94804761D01*
X86900000Y-94852380D01*
X86661904Y-94852380D01*
X83209523Y-93852380D02*
X82733333Y-93852380D01*
X82685714Y-94328571D01*
X82733333Y-94280952D01*
X82828571Y-94233333D01*
X83066666Y-94233333D01*
X83161904Y-94280952D01*
X83209523Y-94328571D01*
X83257142Y-94423809D01*
X83257142Y-94661904D01*
X83209523Y-94757142D01*
X83161904Y-94804761D01*
X83066666Y-94852380D01*
X82828571Y-94852380D01*
X82733333Y-94804761D01*
X82685714Y-94757142D01*
X83542857Y-93852380D02*
X83876190Y-94852380D01*
X84209523Y-93852380D01*
X93038095Y-92200000D02*
X92942857Y-92152380D01*
X92800000Y-92152380D01*
X92657142Y-92200000D01*
X92561904Y-92295238D01*
X92514285Y-92390476D01*
X92466666Y-92580952D01*
X92466666Y-92723809D01*
X92514285Y-92914285D01*
X92561904Y-93009523D01*
X92657142Y-93104761D01*
X92800000Y-93152380D01*
X92895238Y-93152380D01*
X93038095Y-93104761D01*
X93085714Y-93057142D01*
X93085714Y-92723809D01*
X92895238Y-92723809D01*
X93514285Y-93152380D02*
X93514285Y-92152380D01*
X94085714Y-93152380D01*
X94085714Y-92152380D01*
X94561904Y-93152380D02*
X94561904Y-92152380D01*
X94800000Y-92152380D01*
X94942857Y-92200000D01*
X95038095Y-92295238D01*
X95085714Y-92390476D01*
X95133333Y-92580952D01*
X95133333Y-92723809D01*
X95085714Y-92914285D01*
X95038095Y-93009523D01*
X94942857Y-93104761D01*
X94800000Y-93152380D01*
X94561904Y-93152380D01*
X93204761Y-88452380D02*
X93395238Y-88452380D01*
X93490476Y-88500000D01*
X93585714Y-88595238D01*
X93633333Y-88785714D01*
X93633333Y-89119047D01*
X93585714Y-89309523D01*
X93490476Y-89404761D01*
X93395238Y-89452380D01*
X93204761Y-89452380D01*
X93109523Y-89404761D01*
X93014285Y-89309523D01*
X92966666Y-89119047D01*
X92966666Y-88785714D01*
X93014285Y-88595238D01*
X93109523Y-88500000D01*
X93204761Y-88452380D01*
X94061904Y-89452380D02*
X94061904Y-88452380D01*
X94442857Y-88452380D01*
X94538095Y-88500000D01*
X94585714Y-88547619D01*
X94633333Y-88642857D01*
X94633333Y-88785714D01*
X94585714Y-88880952D01*
X94538095Y-88928571D01*
X94442857Y-88976190D01*
X94061904Y-88976190D01*
X93561904Y-78500000D02*
X93466666Y-78452380D01*
X93323809Y-78452380D01*
X93180952Y-78500000D01*
X93085714Y-78595238D01*
X93038095Y-78690476D01*
X92990476Y-78880952D01*
X92990476Y-79023809D01*
X93038095Y-79214285D01*
X93085714Y-79309523D01*
X93180952Y-79404761D01*
X93323809Y-79452380D01*
X93419047Y-79452380D01*
X93561904Y-79404761D01*
X93609523Y-79357142D01*
X93609523Y-79023809D01*
X93419047Y-79023809D01*
X94038095Y-79452380D02*
X94038095Y-78452380D01*
X94419047Y-78452380D01*
X94514285Y-78500000D01*
X94561904Y-78547619D01*
X94609523Y-78642857D01*
X94609523Y-78785714D01*
X94561904Y-78880952D01*
X94514285Y-78928571D01*
X94419047Y-78976190D01*
X94038095Y-78976190D01*
X93038095Y-82300000D02*
X92942857Y-82252380D01*
X92800000Y-82252380D01*
X92657142Y-82300000D01*
X92561904Y-82395238D01*
X92514285Y-82490476D01*
X92466666Y-82680952D01*
X92466666Y-82823809D01*
X92514285Y-83014285D01*
X92561904Y-83109523D01*
X92657142Y-83204761D01*
X92800000Y-83252380D01*
X92895238Y-83252380D01*
X93038095Y-83204761D01*
X93085714Y-83157142D01*
X93085714Y-82823809D01*
X92895238Y-82823809D01*
X93514285Y-83252380D02*
X93514285Y-82252380D01*
X94085714Y-83252380D01*
X94085714Y-82252380D01*
X94561904Y-83252380D02*
X94561904Y-82252380D01*
X94800000Y-82252380D01*
X94942857Y-82300000D01*
X95038095Y-82395238D01*
X95085714Y-82490476D01*
X95133333Y-82680952D01*
X95133333Y-82823809D01*
X95085714Y-83014285D01*
X95038095Y-83109523D01*
X94942857Y-83204761D01*
X94800000Y-83252380D01*
X94561904Y-83252380D01*
X92195238Y-71652380D02*
X92195238Y-70652380D01*
X92576190Y-70652380D01*
X92671428Y-70700000D01*
X92719047Y-70747619D01*
X92766666Y-70842857D01*
X92766666Y-70985714D01*
X92719047Y-71080952D01*
X92671428Y-71128571D01*
X92576190Y-71176190D01*
X92195238Y-71176190D01*
X93100000Y-70652380D02*
X93338095Y-71652380D01*
X93528571Y-70938095D01*
X93719047Y-71652380D01*
X93957142Y-70652380D01*
X94338095Y-71652380D02*
X94338095Y-70652380D01*
X94671428Y-71366666D01*
X95004761Y-70652380D01*
X95004761Y-71652380D01*
X92776190Y-70052380D02*
X92776190Y-69052380D01*
X93252380Y-70052380D02*
X93252380Y-69052380D01*
X93823809Y-70052380D01*
X93823809Y-69052380D01*
X94633333Y-69528571D02*
X94776190Y-69576190D01*
X94823809Y-69623809D01*
X94871428Y-69719047D01*
X94871428Y-69861904D01*
X94823809Y-69957142D01*
X94776190Y-70004761D01*
X94680952Y-70052380D01*
X94300000Y-70052380D01*
X94300000Y-69052380D01*
X94633333Y-69052380D01*
X94728571Y-69100000D01*
X94776190Y-69147619D01*
X94823809Y-69242857D01*
X94823809Y-69338095D01*
X94776190Y-69433333D01*
X94728571Y-69480952D01*
X94633333Y-69528571D01*
X94300000Y-69528571D01*
X92847619Y-67652380D02*
X92847619Y-66652380D01*
X93323809Y-67652380D02*
X93323809Y-66652380D01*
X93895238Y-67652380D01*
X93895238Y-66652380D01*
X94323809Y-67366666D02*
X94800000Y-67366666D01*
X94228571Y-67652380D02*
X94561904Y-66652380D01*
X94895238Y-67652380D01*
X93038095Y-64100000D02*
X92942857Y-64052380D01*
X92800000Y-64052380D01*
X92657142Y-64100000D01*
X92561904Y-64195238D01*
X92514285Y-64290476D01*
X92466666Y-64480952D01*
X92466666Y-64623809D01*
X92514285Y-64814285D01*
X92561904Y-64909523D01*
X92657142Y-65004761D01*
X92800000Y-65052380D01*
X92895238Y-65052380D01*
X93038095Y-65004761D01*
X93085714Y-64957142D01*
X93085714Y-64623809D01*
X92895238Y-64623809D01*
X93514285Y-65052380D02*
X93514285Y-64052380D01*
X94085714Y-65052380D01*
X94085714Y-64052380D01*
X94561904Y-65052380D02*
X94561904Y-64052380D01*
X94800000Y-64052380D01*
X94942857Y-64100000D01*
X95038095Y-64195238D01*
X95085714Y-64290476D01*
X95133333Y-64480952D01*
X95133333Y-64623809D01*
X95085714Y-64814285D01*
X95038095Y-64909523D01*
X94942857Y-65004761D01*
X94800000Y-65052380D01*
X94561904Y-65052380D01*
X93709523Y-61552380D02*
X93233333Y-61552380D01*
X93185714Y-62028571D01*
X93233333Y-61980952D01*
X93328571Y-61933333D01*
X93566666Y-61933333D01*
X93661904Y-61980952D01*
X93709523Y-62028571D01*
X93757142Y-62123809D01*
X93757142Y-62361904D01*
X93709523Y-62457142D01*
X93661904Y-62504761D01*
X93566666Y-62552380D01*
X93328571Y-62552380D01*
X93233333Y-62504761D01*
X93185714Y-62457142D01*
X94042857Y-61552380D02*
X94376190Y-62552380D01*
X94709523Y-61552380D01*
X92066666Y-59952380D02*
X92066666Y-58952380D01*
X92400000Y-59666666D01*
X92733333Y-58952380D01*
X92733333Y-59952380D01*
X93352380Y-59952380D02*
X93257142Y-59904761D01*
X93209523Y-59857142D01*
X93161904Y-59761904D01*
X93161904Y-59476190D01*
X93209523Y-59380952D01*
X93257142Y-59333333D01*
X93352380Y-59285714D01*
X93495238Y-59285714D01*
X93590476Y-59333333D01*
X93638095Y-59380952D01*
X93685714Y-59476190D01*
X93685714Y-59761904D01*
X93638095Y-59857142D01*
X93590476Y-59904761D01*
X93495238Y-59952380D01*
X93352380Y-59952380D01*
X93971428Y-59285714D02*
X94352380Y-59285714D01*
X94114285Y-58952380D02*
X94114285Y-59809523D01*
X94161904Y-59904761D01*
X94257142Y-59952380D01*
X94352380Y-59952380D01*
X94828571Y-59952380D02*
X94733333Y-59904761D01*
X94685714Y-59857142D01*
X94638095Y-59761904D01*
X94638095Y-59476190D01*
X94685714Y-59380952D01*
X94733333Y-59333333D01*
X94828571Y-59285714D01*
X94971428Y-59285714D01*
X95066666Y-59333333D01*
X95114285Y-59380952D01*
X95161904Y-59476190D01*
X95161904Y-59761904D01*
X95114285Y-59857142D01*
X95066666Y-59904761D01*
X94971428Y-59952380D01*
X94828571Y-59952380D01*
X95590476Y-59952380D02*
X95590476Y-59285714D01*
X95590476Y-59476190D02*
X95638095Y-59380952D01*
X95685714Y-59333333D01*
X95780952Y-59285714D01*
X95876190Y-59285714D01*
X93038095Y-53600000D02*
X92942857Y-53552380D01*
X92800000Y-53552380D01*
X92657142Y-53600000D01*
X92561904Y-53695238D01*
X92514285Y-53790476D01*
X92466666Y-53980952D01*
X92466666Y-54123809D01*
X92514285Y-54314285D01*
X92561904Y-54409523D01*
X92657142Y-54504761D01*
X92800000Y-54552380D01*
X92895238Y-54552380D01*
X93038095Y-54504761D01*
X93085714Y-54457142D01*
X93085714Y-54123809D01*
X92895238Y-54123809D01*
X93514285Y-54552380D02*
X93514285Y-53552380D01*
X94085714Y-54552380D01*
X94085714Y-53552380D01*
X94561904Y-54552380D02*
X94561904Y-53552380D01*
X94800000Y-53552380D01*
X94942857Y-53600000D01*
X95038095Y-53695238D01*
X95085714Y-53790476D01*
X95133333Y-53980952D01*
X95133333Y-54123809D01*
X95085714Y-54314285D01*
X95038095Y-54409523D01*
X94942857Y-54504761D01*
X94800000Y-54552380D01*
X94561904Y-54552380D01*
X93709523Y-51552380D02*
X93233333Y-51552380D01*
X93185714Y-52028571D01*
X93233333Y-51980952D01*
X93328571Y-51933333D01*
X93566666Y-51933333D01*
X93661904Y-51980952D01*
X93709523Y-52028571D01*
X93757142Y-52123809D01*
X93757142Y-52361904D01*
X93709523Y-52457142D01*
X93661904Y-52504761D01*
X93566666Y-52552380D01*
X93328571Y-52552380D01*
X93233333Y-52504761D01*
X93185714Y-52457142D01*
X94042857Y-51552380D02*
X94376190Y-52552380D01*
X94709523Y-51552380D01*
X94523809Y-50052380D02*
X94714285Y-50052380D01*
X94809523Y-50100000D01*
X94904761Y-50195238D01*
X94952380Y-50385714D01*
X94952380Y-50719047D01*
X94904761Y-50909523D01*
X94809523Y-51004761D01*
X94714285Y-51052380D01*
X94523809Y-51052380D01*
X94428571Y-51004761D01*
X94333333Y-50909523D01*
X94285714Y-50719047D01*
X94285714Y-50385714D01*
X94333333Y-50195238D01*
X94428571Y-50100000D01*
X94523809Y-50052380D01*
X95238095Y-50052380D02*
X95809523Y-50052380D01*
X95523809Y-51052380D02*
X95523809Y-50052380D01*
X93038095Y-44900000D02*
X92942857Y-44852380D01*
X92800000Y-44852380D01*
X92657142Y-44900000D01*
X92561904Y-44995238D01*
X92514285Y-45090476D01*
X92466666Y-45280952D01*
X92466666Y-45423809D01*
X92514285Y-45614285D01*
X92561904Y-45709523D01*
X92657142Y-45804761D01*
X92800000Y-45852380D01*
X92895238Y-45852380D01*
X93038095Y-45804761D01*
X93085714Y-45757142D01*
X93085714Y-45423809D01*
X92895238Y-45423809D01*
X93514285Y-45852380D02*
X93514285Y-44852380D01*
X94085714Y-45852380D01*
X94085714Y-44852380D01*
X94561904Y-45852380D02*
X94561904Y-44852380D01*
X94800000Y-44852380D01*
X94942857Y-44900000D01*
X95038095Y-44995238D01*
X95085714Y-45090476D01*
X95133333Y-45280952D01*
X95133333Y-45423809D01*
X95085714Y-45614285D01*
X95038095Y-45709523D01*
X94942857Y-45804761D01*
X94800000Y-45852380D01*
X94561904Y-45852380D01*
X94009523Y-43352380D02*
X93533333Y-43352380D01*
X93485714Y-43828571D01*
X93533333Y-43780952D01*
X93628571Y-43733333D01*
X93866666Y-43733333D01*
X93961904Y-43780952D01*
X94009523Y-43828571D01*
X94057142Y-43923809D01*
X94057142Y-44161904D01*
X94009523Y-44257142D01*
X93961904Y-44304761D01*
X93866666Y-44352380D01*
X93628571Y-44352380D01*
X93533333Y-44304761D01*
X93485714Y-44257142D01*
X94342857Y-43352380D02*
X94676190Y-44352380D01*
X95009523Y-43352380D01*
X94928571Y-42152380D02*
X94595238Y-41676190D01*
X94357142Y-42152380D02*
X94357142Y-41152380D01*
X94738095Y-41152380D01*
X94833333Y-41200000D01*
X94880952Y-41247619D01*
X94928571Y-41342857D01*
X94928571Y-41485714D01*
X94880952Y-41580952D01*
X94833333Y-41628571D01*
X94738095Y-41676190D01*
X94357142Y-41676190D01*
X95214285Y-41152380D02*
X95785714Y-41152380D01*
X95500000Y-42152380D02*
X95500000Y-41152380D01*
X86376190Y-45904761D02*
X86519047Y-45952380D01*
X86757142Y-45952380D01*
X86852380Y-45904761D01*
X86900000Y-45857142D01*
X86947619Y-45761904D01*
X86947619Y-45666666D01*
X86900000Y-45571428D01*
X86852380Y-45523809D01*
X86757142Y-45476190D01*
X86566666Y-45428571D01*
X86471428Y-45380952D01*
X86423809Y-45333333D01*
X86376190Y-45238095D01*
X86376190Y-45142857D01*
X86423809Y-45047619D01*
X86471428Y-45000000D01*
X86566666Y-44952380D01*
X86804761Y-44952380D01*
X86947619Y-45000000D01*
X87376190Y-45952380D02*
X87376190Y-44952380D01*
X88376190Y-45000000D02*
X88280952Y-44952380D01*
X88138095Y-44952380D01*
X87995238Y-45000000D01*
X87900000Y-45095238D01*
X87852380Y-45190476D01*
X87804761Y-45380952D01*
X87804761Y-45523809D01*
X87852380Y-45714285D01*
X87900000Y-45809523D01*
X87995238Y-45904761D01*
X88138095Y-45952380D01*
X88233333Y-45952380D01*
X88376190Y-45904761D01*
X88423809Y-45857142D01*
X88423809Y-45523809D01*
X88233333Y-45523809D01*
X83838095Y-45000000D02*
X83742857Y-44952380D01*
X83600000Y-44952380D01*
X83457142Y-45000000D01*
X83361904Y-45095238D01*
X83314285Y-45190476D01*
X83266666Y-45380952D01*
X83266666Y-45523809D01*
X83314285Y-45714285D01*
X83361904Y-45809523D01*
X83457142Y-45904761D01*
X83600000Y-45952380D01*
X83695238Y-45952380D01*
X83838095Y-45904761D01*
X83885714Y-45857142D01*
X83885714Y-45523809D01*
X83695238Y-45523809D01*
X84314285Y-45952380D02*
X84314285Y-44952380D01*
X84885714Y-45952380D01*
X84885714Y-44952380D01*
X85361904Y-45952380D02*
X85361904Y-44952380D01*
X85600000Y-44952380D01*
X85742857Y-45000000D01*
X85838095Y-45095238D01*
X85885714Y-45190476D01*
X85933333Y-45380952D01*
X85933333Y-45523809D01*
X85885714Y-45714285D01*
X85838095Y-45809523D01*
X85742857Y-45904761D01*
X85600000Y-45952380D01*
X85361904Y-45952380D01*
X81809523Y-44952380D02*
X81333333Y-44952380D01*
X81285714Y-45428571D01*
X81333333Y-45380952D01*
X81428571Y-45333333D01*
X81666666Y-45333333D01*
X81761904Y-45380952D01*
X81809523Y-45428571D01*
X81857142Y-45523809D01*
X81857142Y-45761904D01*
X81809523Y-45857142D01*
X81761904Y-45904761D01*
X81666666Y-45952380D01*
X81428571Y-45952380D01*
X81333333Y-45904761D01*
X81285714Y-45857142D01*
X82142857Y-44952380D02*
X82476190Y-45952380D01*
X82809523Y-44952380D01*
X80333333Y-47252380D02*
X80333333Y-46252380D01*
X80333333Y-46728571D02*
X80904761Y-46728571D01*
X80904761Y-47252380D02*
X80904761Y-46252380D01*
X81809523Y-47252380D02*
X81809523Y-46728571D01*
X81761904Y-46633333D01*
X81666666Y-46585714D01*
X81476190Y-46585714D01*
X81380952Y-46633333D01*
X81809523Y-47204761D02*
X81714285Y-47252380D01*
X81476190Y-47252380D01*
X81380952Y-47204761D01*
X81333333Y-47109523D01*
X81333333Y-47014285D01*
X81380952Y-46919047D01*
X81476190Y-46871428D01*
X81714285Y-46871428D01*
X81809523Y-46823809D01*
X82428571Y-47252380D02*
X82333333Y-47204761D01*
X82285714Y-47109523D01*
X82285714Y-46252380D01*
X82952380Y-47252380D02*
X82857142Y-47204761D01*
X82809523Y-47109523D01*
X82809523Y-46252380D01*
X84047619Y-47204761D02*
X84190476Y-47252380D01*
X84428571Y-47252380D01*
X84523809Y-47204761D01*
X84571428Y-47157142D01*
X84619047Y-47061904D01*
X84619047Y-46966666D01*
X84571428Y-46871428D01*
X84523809Y-46823809D01*
X84428571Y-46776190D01*
X84238095Y-46728571D01*
X84142857Y-46680952D01*
X84095238Y-46633333D01*
X84047619Y-46538095D01*
X84047619Y-46442857D01*
X84095238Y-46347619D01*
X84142857Y-46300000D01*
X84238095Y-46252380D01*
X84476190Y-46252380D01*
X84619047Y-46300000D01*
X85428571Y-47204761D02*
X85333333Y-47252380D01*
X85142857Y-47252380D01*
X85047619Y-47204761D01*
X85000000Y-47109523D01*
X85000000Y-46728571D01*
X85047619Y-46633333D01*
X85142857Y-46585714D01*
X85333333Y-46585714D01*
X85428571Y-46633333D01*
X85476190Y-46728571D01*
X85476190Y-46823809D01*
X85000000Y-46919047D01*
X85904761Y-46585714D02*
X85904761Y-47252380D01*
X85904761Y-46680952D02*
X85952380Y-46633333D01*
X86047619Y-46585714D01*
X86190476Y-46585714D01*
X86285714Y-46633333D01*
X86333333Y-46728571D01*
X86333333Y-47252380D01*
X86761904Y-47204761D02*
X86857142Y-47252380D01*
X87047619Y-47252380D01*
X87142857Y-47204761D01*
X87190476Y-47109523D01*
X87190476Y-47061904D01*
X87142857Y-46966666D01*
X87047619Y-46919047D01*
X86904761Y-46919047D01*
X86809523Y-46871428D01*
X86761904Y-46776190D01*
X86761904Y-46728571D01*
X86809523Y-46633333D01*
X86904761Y-46585714D01*
X87047619Y-46585714D01*
X87142857Y-46633333D01*
X87761904Y-47252380D02*
X87666666Y-47204761D01*
X87619047Y-47157142D01*
X87571428Y-47061904D01*
X87571428Y-46776190D01*
X87619047Y-46680952D01*
X87666666Y-46633333D01*
X87761904Y-46585714D01*
X87904761Y-46585714D01*
X88000000Y-46633333D01*
X88047619Y-46680952D01*
X88095238Y-46776190D01*
X88095238Y-47061904D01*
X88047619Y-47157142D01*
X88000000Y-47204761D01*
X87904761Y-47252380D01*
X87761904Y-47252380D01*
X88523809Y-47252380D02*
X88523809Y-46585714D01*
X88523809Y-46776190D02*
X88571428Y-46680952D01*
X88619047Y-46633333D01*
X88714285Y-46585714D01*
X88809523Y-46585714D01*
X66838095Y-45000000D02*
X66742857Y-44952380D01*
X66600000Y-44952380D01*
X66457142Y-45000000D01*
X66361904Y-45095238D01*
X66314285Y-45190476D01*
X66266666Y-45380952D01*
X66266666Y-45523809D01*
X66314285Y-45714285D01*
X66361904Y-45809523D01*
X66457142Y-45904761D01*
X66600000Y-45952380D01*
X66695238Y-45952380D01*
X66838095Y-45904761D01*
X66885714Y-45857142D01*
X66885714Y-45523809D01*
X66695238Y-45523809D01*
X67314285Y-45952380D02*
X67314285Y-44952380D01*
X67885714Y-45952380D01*
X67885714Y-44952380D01*
X68361904Y-45952380D02*
X68361904Y-44952380D01*
X68600000Y-44952380D01*
X68742857Y-45000000D01*
X68838095Y-45095238D01*
X68885714Y-45190476D01*
X68933333Y-45380952D01*
X68933333Y-45523809D01*
X68885714Y-45714285D01*
X68838095Y-45809523D01*
X68742857Y-45904761D01*
X68600000Y-45952380D01*
X68361904Y-45952380D01*
X64709523Y-44952380D02*
X64233333Y-44952380D01*
X64185714Y-45428571D01*
X64233333Y-45380952D01*
X64328571Y-45333333D01*
X64566666Y-45333333D01*
X64661904Y-45380952D01*
X64709523Y-45428571D01*
X64757142Y-45523809D01*
X64757142Y-45761904D01*
X64709523Y-45857142D01*
X64661904Y-45904761D01*
X64566666Y-45952380D01*
X64328571Y-45952380D01*
X64233333Y-45904761D01*
X64185714Y-45857142D01*
X65042857Y-44952380D02*
X65376190Y-45952380D01*
X65709523Y-44952380D01*
X70452380Y-45476190D02*
X69452380Y-45476190D01*
X69452380Y-45095238D01*
X69500000Y-45000000D01*
X69547619Y-44952380D01*
X69642857Y-44904761D01*
X69785714Y-44904761D01*
X69880952Y-44952380D01*
X69928571Y-45000000D01*
X69976190Y-45095238D01*
X69976190Y-45476190D01*
X70452380Y-44333333D02*
X70404761Y-44428571D01*
X70357142Y-44476190D01*
X70261904Y-44523809D01*
X69976190Y-44523809D01*
X69880952Y-44476190D01*
X69833333Y-44428571D01*
X69785714Y-44333333D01*
X69785714Y-44190476D01*
X69833333Y-44095238D01*
X69880952Y-44047619D01*
X69976190Y-44000000D01*
X70261904Y-44000000D01*
X70357142Y-44047619D01*
X70404761Y-44095238D01*
X70452380Y-44190476D01*
X70452380Y-44333333D01*
X69785714Y-43666666D02*
X70452380Y-43476190D01*
X69976190Y-43285714D01*
X70452380Y-43095238D01*
X69785714Y-42904761D01*
X70404761Y-42142857D02*
X70452380Y-42238095D01*
X70452380Y-42428571D01*
X70404761Y-42523809D01*
X70309523Y-42571428D01*
X69928571Y-42571428D01*
X69833333Y-42523809D01*
X69785714Y-42428571D01*
X69785714Y-42238095D01*
X69833333Y-42142857D01*
X69928571Y-42095238D01*
X70023809Y-42095238D01*
X70119047Y-42571428D01*
X70452380Y-41666666D02*
X69785714Y-41666666D01*
X69976190Y-41666666D02*
X69880952Y-41619047D01*
X69833333Y-41571428D01*
X69785714Y-41476190D01*
X69785714Y-41380952D01*
X68238095Y-84252380D02*
X68238095Y-85061904D01*
X68285714Y-85157142D01*
X68333333Y-85204761D01*
X68428571Y-85252380D01*
X68619047Y-85252380D01*
X68714285Y-85204761D01*
X68761904Y-85157142D01*
X68809523Y-85061904D01*
X68809523Y-84252380D01*
X69238095Y-85204761D02*
X69380952Y-85252380D01*
X69619047Y-85252380D01*
X69714285Y-85204761D01*
X69761904Y-85157142D01*
X69809523Y-85061904D01*
X69809523Y-84966666D01*
X69761904Y-84871428D01*
X69714285Y-84823809D01*
X69619047Y-84776190D01*
X69428571Y-84728571D01*
X69333333Y-84680952D01*
X69285714Y-84633333D01*
X69238095Y-84538095D01*
X69238095Y-84442857D01*
X69285714Y-84347619D01*
X69333333Y-84300000D01*
X69428571Y-84252380D01*
X69666666Y-84252380D01*
X69809523Y-84300000D01*
X70571428Y-84728571D02*
X70714285Y-84776190D01*
X70761904Y-84823809D01*
X70809523Y-84919047D01*
X70809523Y-85061904D01*
X70761904Y-85157142D01*
X70714285Y-85204761D01*
X70619047Y-85252380D01*
X70238095Y-85252380D01*
X70238095Y-84252380D01*
X70571428Y-84252380D01*
X70666666Y-84300000D01*
X70714285Y-84347619D01*
X70761904Y-84442857D01*
X70761904Y-84538095D01*
X70714285Y-84633333D01*
X70666666Y-84680952D01*
X70571428Y-84728571D01*
X70238095Y-84728571D01*
X69223809Y-53252380D02*
X69223809Y-52252380D01*
X69652380Y-53204761D02*
X69795238Y-53252380D01*
X70033333Y-53252380D01*
X70128571Y-53204761D01*
X70176190Y-53157142D01*
X70223809Y-53061904D01*
X70223809Y-52966666D01*
X70176190Y-52871428D01*
X70128571Y-52823809D01*
X70033333Y-52776190D01*
X69842857Y-52728571D01*
X69747619Y-52680952D01*
X69700000Y-52633333D01*
X69652380Y-52538095D01*
X69652380Y-52442857D01*
X69700000Y-52347619D01*
X69747619Y-52300000D01*
X69842857Y-52252380D01*
X70080952Y-52252380D01*
X70223809Y-52300000D01*
X70652380Y-53252380D02*
X70652380Y-52252380D01*
X71033333Y-52252380D01*
X71128571Y-52300000D01*
X71176190Y-52347619D01*
X71223809Y-52442857D01*
X71223809Y-52585714D01*
X71176190Y-52680952D01*
X71128571Y-52728571D01*
X71033333Y-52776190D01*
X70652380Y-52776190D01*
D11*
%TO.C,J1*%
X61670000Y-89050000D02*
X64330000Y-89050000D01*
X61670000Y-53430000D02*
X61670000Y-89050000D01*
X64330000Y-53430000D02*
X64330000Y-89050000D01*
X61670000Y-53430000D02*
X64330000Y-53430000D01*
X61670000Y-52160000D02*
X61670000Y-50830000D01*
X61670000Y-50830000D02*
X63000000Y-50830000D01*
%TO.C,J2*%
X68870000Y-44330000D02*
X68870000Y-41670000D01*
X66270000Y-44330000D02*
X68870000Y-44330000D01*
X66270000Y-41670000D02*
X68870000Y-41670000D01*
X66270000Y-44330000D02*
X66270000Y-41670000D01*
X65000000Y-44330000D02*
X63670000Y-44330000D01*
X63670000Y-44330000D02*
X63670000Y-43000000D01*
%TO.C,J3*%
X76890000Y-50830000D02*
X78220000Y-50830000D01*
X76890000Y-52160000D02*
X76890000Y-50830000D01*
X76890000Y-53430000D02*
X79550000Y-53430000D01*
X79550000Y-53430000D02*
X79550000Y-89050000D01*
X76890000Y-53430000D02*
X76890000Y-89050000D01*
X76890000Y-89050000D02*
X79550000Y-89050000D01*
%TO.C,J4*%
X88410000Y-44330000D02*
X88410000Y-41670000D01*
X83270000Y-44330000D02*
X88410000Y-44330000D01*
X83270000Y-41670000D02*
X88410000Y-41670000D01*
X83270000Y-44330000D02*
X83270000Y-41670000D01*
X82000000Y-44330000D02*
X80670000Y-44330000D01*
X80670000Y-44330000D02*
X80670000Y-43000000D01*
%TO.C,J5*%
X95670000Y-42670000D02*
X97000000Y-42670000D01*
X95670000Y-44000000D02*
X95670000Y-42670000D01*
X95670000Y-45270000D02*
X98330000Y-45270000D01*
X98330000Y-45270000D02*
X98330000Y-47870000D01*
X95670000Y-45270000D02*
X95670000Y-47870000D01*
X95670000Y-47870000D02*
X98330000Y-47870000D01*
%TO.C,J6*%
X95670000Y-56870000D02*
X98330000Y-56870000D01*
X95670000Y-54270000D02*
X95670000Y-56870000D01*
X98330000Y-54270000D02*
X98330000Y-56870000D01*
X95670000Y-54270000D02*
X98330000Y-54270000D01*
X95670000Y-53000000D02*
X95670000Y-51670000D01*
X95670000Y-51670000D02*
X97000000Y-51670000D01*
%TO.C,J7*%
X95670000Y-73490000D02*
X98330000Y-73490000D01*
X95670000Y-63270000D02*
X95670000Y-73490000D01*
X98330000Y-63270000D02*
X98330000Y-73490000D01*
X95670000Y-63270000D02*
X98330000Y-63270000D01*
X95670000Y-62000000D02*
X95670000Y-60670000D01*
X95670000Y-60670000D02*
X97000000Y-60670000D01*
%TO.C,J8*%
X95670000Y-83870000D02*
X98330000Y-83870000D01*
X95670000Y-81270000D02*
X95670000Y-83870000D01*
X98330000Y-81270000D02*
X98330000Y-83870000D01*
X95670000Y-81270000D02*
X98330000Y-81270000D01*
X95670000Y-80000000D02*
X95670000Y-78670000D01*
X95670000Y-78670000D02*
X97000000Y-78670000D01*
%TO.C,J9*%
X95670000Y-88670000D02*
X97000000Y-88670000D01*
X95670000Y-90000000D02*
X95670000Y-88670000D01*
X95670000Y-91270000D02*
X98330000Y-91270000D01*
X98330000Y-91270000D02*
X98330000Y-93870000D01*
X95670000Y-91270000D02*
X95670000Y-93870000D01*
X95670000Y-93870000D02*
X98330000Y-93870000D01*
%TO.C,J10*%
X76490000Y-98330000D02*
X76490000Y-95670000D01*
X66270000Y-98330000D02*
X76490000Y-98330000D01*
X66270000Y-95670000D02*
X76490000Y-95670000D01*
X66270000Y-98330000D02*
X66270000Y-95670000D01*
X65000000Y-98330000D02*
X63670000Y-98330000D01*
X63670000Y-98330000D02*
X63670000Y-97000000D01*
%TO.C,J11*%
X82050000Y-95670000D02*
X82050000Y-98330000D01*
X89730000Y-95670000D02*
X82050000Y-95670000D01*
X89730000Y-98330000D02*
X82050000Y-98330000D01*
X89730000Y-95670000D02*
X89730000Y-98330000D01*
X91000000Y-95670000D02*
X92330000Y-95670000D01*
X92330000Y-95670000D02*
X92330000Y-97000000D01*
%TO.C,J12*%
X72570000Y-44330000D02*
X72570000Y-43000000D01*
X73900000Y-44330000D02*
X72570000Y-44330000D01*
X75170000Y-44330000D02*
X75170000Y-41670000D01*
X75170000Y-41670000D02*
X77770000Y-41670000D01*
X75170000Y-44330000D02*
X77770000Y-44330000D01*
X77770000Y-44330000D02*
X77770000Y-41670000D01*
%TO.C,J1*%
D10*
X62666666Y-49282380D02*
X62666666Y-49996666D01*
X62619047Y-50139523D01*
X62523809Y-50234761D01*
X62380952Y-50282380D01*
X62285714Y-50282380D01*
X63666666Y-50282380D02*
X63095238Y-50282380D01*
X63380952Y-50282380D02*
X63380952Y-49282380D01*
X63285714Y-49425238D01*
X63190476Y-49520476D01*
X63095238Y-49568095D01*
%TO.C,J2*%
X62122380Y-43333333D02*
X62836666Y-43333333D01*
X62979523Y-43380952D01*
X63074761Y-43476190D01*
X63122380Y-43619047D01*
X63122380Y-43714285D01*
X62217619Y-42904761D02*
X62170000Y-42857142D01*
X62122380Y-42761904D01*
X62122380Y-42523809D01*
X62170000Y-42428571D01*
X62217619Y-42380952D01*
X62312857Y-42333333D01*
X62408095Y-42333333D01*
X62550952Y-42380952D01*
X63122380Y-42952380D01*
X63122380Y-42333333D01*
%TO.C,J3*%
X77886666Y-49282380D02*
X77886666Y-49996666D01*
X77839047Y-50139523D01*
X77743809Y-50234761D01*
X77600952Y-50282380D01*
X77505714Y-50282380D01*
X78267619Y-49282380D02*
X78886666Y-49282380D01*
X78553333Y-49663333D01*
X78696190Y-49663333D01*
X78791428Y-49710952D01*
X78839047Y-49758571D01*
X78886666Y-49853809D01*
X78886666Y-50091904D01*
X78839047Y-50187142D01*
X78791428Y-50234761D01*
X78696190Y-50282380D01*
X78410476Y-50282380D01*
X78315238Y-50234761D01*
X78267619Y-50187142D01*
%TO.C,J4*%
X79122380Y-43333333D02*
X79836666Y-43333333D01*
X79979523Y-43380952D01*
X80074761Y-43476190D01*
X80122380Y-43619047D01*
X80122380Y-43714285D01*
X79455714Y-42428571D02*
X80122380Y-42428571D01*
X79074761Y-42666666D02*
X79789047Y-42904761D01*
X79789047Y-42285714D01*
%TO.C,J5*%
X96666666Y-41122380D02*
X96666666Y-41836666D01*
X96619047Y-41979523D01*
X96523809Y-42074761D01*
X96380952Y-42122380D01*
X96285714Y-42122380D01*
X97619047Y-41122380D02*
X97142857Y-41122380D01*
X97095238Y-41598571D01*
X97142857Y-41550952D01*
X97238095Y-41503333D01*
X97476190Y-41503333D01*
X97571428Y-41550952D01*
X97619047Y-41598571D01*
X97666666Y-41693809D01*
X97666666Y-41931904D01*
X97619047Y-42027142D01*
X97571428Y-42074761D01*
X97476190Y-42122380D01*
X97238095Y-42122380D01*
X97142857Y-42074761D01*
X97095238Y-42027142D01*
%TO.C,J6*%
X96666666Y-50052380D02*
X96666666Y-50766666D01*
X96619047Y-50909523D01*
X96523809Y-51004761D01*
X96380952Y-51052380D01*
X96285714Y-51052380D01*
X97571428Y-50052380D02*
X97380952Y-50052380D01*
X97285714Y-50100000D01*
X97238095Y-50147619D01*
X97142857Y-50290476D01*
X97095238Y-50480952D01*
X97095238Y-50861904D01*
X97142857Y-50957142D01*
X97190476Y-51004761D01*
X97285714Y-51052380D01*
X97476190Y-51052380D01*
X97571428Y-51004761D01*
X97619047Y-50957142D01*
X97666666Y-50861904D01*
X97666666Y-50623809D01*
X97619047Y-50528571D01*
X97571428Y-50480952D01*
X97476190Y-50433333D01*
X97285714Y-50433333D01*
X97190476Y-50480952D01*
X97142857Y-50528571D01*
X97095238Y-50623809D01*
%TO.C,J7*%
X96666666Y-59122380D02*
X96666666Y-59836666D01*
X96619047Y-59979523D01*
X96523809Y-60074761D01*
X96380952Y-60122380D01*
X96285714Y-60122380D01*
X97047619Y-59122380D02*
X97714285Y-59122380D01*
X97285714Y-60122380D01*
%TO.C,J8*%
X96666666Y-77122380D02*
X96666666Y-77836666D01*
X96619047Y-77979523D01*
X96523809Y-78074761D01*
X96380952Y-78122380D01*
X96285714Y-78122380D01*
X97285714Y-77550952D02*
X97190476Y-77503333D01*
X97142857Y-77455714D01*
X97095238Y-77360476D01*
X97095238Y-77312857D01*
X97142857Y-77217619D01*
X97190476Y-77170000D01*
X97285714Y-77122380D01*
X97476190Y-77122380D01*
X97571428Y-77170000D01*
X97619047Y-77217619D01*
X97666666Y-77312857D01*
X97666666Y-77360476D01*
X97619047Y-77455714D01*
X97571428Y-77503333D01*
X97476190Y-77550952D01*
X97285714Y-77550952D01*
X97190476Y-77598571D01*
X97142857Y-77646190D01*
X97095238Y-77741428D01*
X97095238Y-77931904D01*
X97142857Y-78027142D01*
X97190476Y-78074761D01*
X97285714Y-78122380D01*
X97476190Y-78122380D01*
X97571428Y-78074761D01*
X97619047Y-78027142D01*
X97666666Y-77931904D01*
X97666666Y-77741428D01*
X97619047Y-77646190D01*
X97571428Y-77598571D01*
X97476190Y-77550952D01*
%TO.C,J9*%
X96666666Y-87122380D02*
X96666666Y-87836666D01*
X96619047Y-87979523D01*
X96523809Y-88074761D01*
X96380952Y-88122380D01*
X96285714Y-88122380D01*
X97190476Y-88122380D02*
X97380952Y-88122380D01*
X97476190Y-88074761D01*
X97523809Y-88027142D01*
X97619047Y-87884285D01*
X97666666Y-87693809D01*
X97666666Y-87312857D01*
X97619047Y-87217619D01*
X97571428Y-87170000D01*
X97476190Y-87122380D01*
X97285714Y-87122380D01*
X97190476Y-87170000D01*
X97142857Y-87217619D01*
X97095238Y-87312857D01*
X97095238Y-87550952D01*
X97142857Y-87646190D01*
X97190476Y-87693809D01*
X97285714Y-87741428D01*
X97476190Y-87741428D01*
X97571428Y-87693809D01*
X97619047Y-87646190D01*
X97666666Y-87550952D01*
%TO.C,R1*%
X92833333Y-81512380D02*
X92500000Y-81036190D01*
X92261904Y-81512380D02*
X92261904Y-80512380D01*
X92642857Y-80512380D01*
X92738095Y-80560000D01*
X92785714Y-80607619D01*
X92833333Y-80702857D01*
X92833333Y-80845714D01*
X92785714Y-80940952D01*
X92738095Y-80988571D01*
X92642857Y-81036190D01*
X92261904Y-81036190D01*
X93785714Y-81512380D02*
X93214285Y-81512380D01*
X93500000Y-81512380D02*
X93500000Y-80512380D01*
X93404761Y-80655238D01*
X93309523Y-80750476D01*
X93214285Y-80798095D01*
%TO.C,R2*%
X92833333Y-91492380D02*
X92500000Y-91016190D01*
X92261904Y-91492380D02*
X92261904Y-90492380D01*
X92642857Y-90492380D01*
X92738095Y-90540000D01*
X92785714Y-90587619D01*
X92833333Y-90682857D01*
X92833333Y-90825714D01*
X92785714Y-90920952D01*
X92738095Y-90968571D01*
X92642857Y-91016190D01*
X92261904Y-91016190D01*
X93214285Y-90587619D02*
X93261904Y-90540000D01*
X93357142Y-90492380D01*
X93595238Y-90492380D01*
X93690476Y-90540000D01*
X93738095Y-90587619D01*
X93785714Y-90682857D01*
X93785714Y-90778095D01*
X93738095Y-90920952D01*
X93166666Y-91492380D01*
X93785714Y-91492380D01*
%TO.C,R3*%
X92833333Y-48042380D02*
X92500000Y-47566190D01*
X92261904Y-48042380D02*
X92261904Y-47042380D01*
X92642857Y-47042380D01*
X92738095Y-47090000D01*
X92785714Y-47137619D01*
X92833333Y-47232857D01*
X92833333Y-47375714D01*
X92785714Y-47470952D01*
X92738095Y-47518571D01*
X92642857Y-47566190D01*
X92261904Y-47566190D01*
X93166666Y-47042380D02*
X93785714Y-47042380D01*
X93452380Y-47423333D01*
X93595238Y-47423333D01*
X93690476Y-47470952D01*
X93738095Y-47518571D01*
X93785714Y-47613809D01*
X93785714Y-47851904D01*
X93738095Y-47947142D01*
X93690476Y-47994761D01*
X93595238Y-48042380D01*
X93309523Y-48042380D01*
X93214285Y-47994761D01*
X93166666Y-47947142D01*
%TO.C,R4*%
X92833333Y-57022380D02*
X92500000Y-56546190D01*
X92261904Y-57022380D02*
X92261904Y-56022380D01*
X92642857Y-56022380D01*
X92738095Y-56070000D01*
X92785714Y-56117619D01*
X92833333Y-56212857D01*
X92833333Y-56355714D01*
X92785714Y-56450952D01*
X92738095Y-56498571D01*
X92642857Y-56546190D01*
X92261904Y-56546190D01*
X93690476Y-56355714D02*
X93690476Y-57022380D01*
X93452380Y-55974761D02*
X93214285Y-56689047D01*
X93833333Y-56689047D01*
%TO.C,R5*%
X92833333Y-73662380D02*
X92500000Y-73186190D01*
X92261904Y-73662380D02*
X92261904Y-72662380D01*
X92642857Y-72662380D01*
X92738095Y-72710000D01*
X92785714Y-72757619D01*
X92833333Y-72852857D01*
X92833333Y-72995714D01*
X92785714Y-73090952D01*
X92738095Y-73138571D01*
X92642857Y-73186190D01*
X92261904Y-73186190D01*
X93738095Y-72662380D02*
X93261904Y-72662380D01*
X93214285Y-73138571D01*
X93261904Y-73090952D01*
X93357142Y-73043333D01*
X93595238Y-73043333D01*
X93690476Y-73090952D01*
X93738095Y-73138571D01*
X93785714Y-73233809D01*
X93785714Y-73471904D01*
X93738095Y-73567142D01*
X93690476Y-73614761D01*
X93595238Y-73662380D01*
X93357142Y-73662380D01*
X93261904Y-73614761D01*
X93214285Y-73567142D01*
%TO.C,J10*%
X62122380Y-97809523D02*
X62836666Y-97809523D01*
X62979523Y-97857142D01*
X63074761Y-97952380D01*
X63122380Y-98095238D01*
X63122380Y-98190476D01*
X63122380Y-96809523D02*
X63122380Y-97380952D01*
X63122380Y-97095238D02*
X62122380Y-97095238D01*
X62265238Y-97190476D01*
X62360476Y-97285714D01*
X62408095Y-97380952D01*
X62122380Y-96190476D02*
X62122380Y-96095238D01*
X62170000Y-96000000D01*
X62217619Y-95952380D01*
X62312857Y-95904761D01*
X62503333Y-95857142D01*
X62741428Y-95857142D01*
X62931904Y-95904761D01*
X63027142Y-95952380D01*
X63074761Y-96000000D01*
X63122380Y-96095238D01*
X63122380Y-96190476D01*
X63074761Y-96285714D01*
X63027142Y-96333333D01*
X62931904Y-96380952D01*
X62741428Y-96428571D01*
X62503333Y-96428571D01*
X62312857Y-96380952D01*
X62217619Y-96333333D01*
X62170000Y-96285714D01*
X62122380Y-96190476D01*
%TO.C,J11*%
X92782380Y-97809523D02*
X93496666Y-97809523D01*
X93639523Y-97857142D01*
X93734761Y-97952380D01*
X93782380Y-98095238D01*
X93782380Y-98190476D01*
X93782380Y-96809523D02*
X93782380Y-97380952D01*
X93782380Y-97095238D02*
X92782380Y-97095238D01*
X92925238Y-97190476D01*
X93020476Y-97285714D01*
X93068095Y-97380952D01*
X93782380Y-95857142D02*
X93782380Y-96428571D01*
X93782380Y-96142857D02*
X92782380Y-96142857D01*
X92925238Y-96238095D01*
X93020476Y-96333333D01*
X93068095Y-96428571D01*
%TO.C,R6*%
X67532380Y-90356666D02*
X67056190Y-90690000D01*
X67532380Y-90928095D02*
X66532380Y-90928095D01*
X66532380Y-90547142D01*
X66580000Y-90451904D01*
X66627619Y-90404285D01*
X66722857Y-90356666D01*
X66865714Y-90356666D01*
X66960952Y-90404285D01*
X67008571Y-90451904D01*
X67056190Y-90547142D01*
X67056190Y-90928095D01*
X66532380Y-89499523D02*
X66532380Y-89690000D01*
X66580000Y-89785238D01*
X66627619Y-89832857D01*
X66770476Y-89928095D01*
X66960952Y-89975714D01*
X67341904Y-89975714D01*
X67437142Y-89928095D01*
X67484761Y-89880476D01*
X67532380Y-89785238D01*
X67532380Y-89594761D01*
X67484761Y-89499523D01*
X67437142Y-89451904D01*
X67341904Y-89404285D01*
X67103809Y-89404285D01*
X67008571Y-89451904D01*
X66960952Y-89499523D01*
X66913333Y-89594761D01*
X66913333Y-89785238D01*
X66960952Y-89880476D01*
X67008571Y-89928095D01*
X67103809Y-89975714D01*
%TO.C,R7*%
X68952380Y-90356666D02*
X68476190Y-90690000D01*
X68952380Y-90928095D02*
X67952380Y-90928095D01*
X67952380Y-90547142D01*
X68000000Y-90451904D01*
X68047619Y-90404285D01*
X68142857Y-90356666D01*
X68285714Y-90356666D01*
X68380952Y-90404285D01*
X68428571Y-90451904D01*
X68476190Y-90547142D01*
X68476190Y-90928095D01*
X67952380Y-90023333D02*
X67952380Y-89356666D01*
X68952380Y-89785238D01*
%TO.C,R8*%
X70422380Y-90356666D02*
X69946190Y-90690000D01*
X70422380Y-90928095D02*
X69422380Y-90928095D01*
X69422380Y-90547142D01*
X69470000Y-90451904D01*
X69517619Y-90404285D01*
X69612857Y-90356666D01*
X69755714Y-90356666D01*
X69850952Y-90404285D01*
X69898571Y-90451904D01*
X69946190Y-90547142D01*
X69946190Y-90928095D01*
X69850952Y-89785238D02*
X69803333Y-89880476D01*
X69755714Y-89928095D01*
X69660476Y-89975714D01*
X69612857Y-89975714D01*
X69517619Y-89928095D01*
X69470000Y-89880476D01*
X69422380Y-89785238D01*
X69422380Y-89594761D01*
X69470000Y-89499523D01*
X69517619Y-89451904D01*
X69612857Y-89404285D01*
X69660476Y-89404285D01*
X69755714Y-89451904D01*
X69803333Y-89499523D01*
X69850952Y-89594761D01*
X69850952Y-89785238D01*
X69898571Y-89880476D01*
X69946190Y-89928095D01*
X70041428Y-89975714D01*
X70231904Y-89975714D01*
X70327142Y-89928095D01*
X70374761Y-89880476D01*
X70422380Y-89785238D01*
X70422380Y-89594761D01*
X70374761Y-89499523D01*
X70327142Y-89451904D01*
X70231904Y-89404285D01*
X70041428Y-89404285D01*
X69946190Y-89451904D01*
X69898571Y-89499523D01*
X69850952Y-89594761D01*
%TO.C,R9*%
X71942380Y-90356666D02*
X71466190Y-90690000D01*
X71942380Y-90928095D02*
X70942380Y-90928095D01*
X70942380Y-90547142D01*
X70990000Y-90451904D01*
X71037619Y-90404285D01*
X71132857Y-90356666D01*
X71275714Y-90356666D01*
X71370952Y-90404285D01*
X71418571Y-90451904D01*
X71466190Y-90547142D01*
X71466190Y-90928095D01*
X71942380Y-89880476D02*
X71942380Y-89690000D01*
X71894761Y-89594761D01*
X71847142Y-89547142D01*
X71704285Y-89451904D01*
X71513809Y-89404285D01*
X71132857Y-89404285D01*
X71037619Y-89451904D01*
X70990000Y-89499523D01*
X70942380Y-89594761D01*
X70942380Y-89785238D01*
X70990000Y-89880476D01*
X71037619Y-89928095D01*
X71132857Y-89975714D01*
X71370952Y-89975714D01*
X71466190Y-89928095D01*
X71513809Y-89880476D01*
X71561428Y-89785238D01*
X71561428Y-89594761D01*
X71513809Y-89499523D01*
X71466190Y-89451904D01*
X71370952Y-89404285D01*
%TO.C,R10*%
X88852380Y-90742857D02*
X88376190Y-91076190D01*
X88852380Y-91314285D02*
X87852380Y-91314285D01*
X87852380Y-90933333D01*
X87900000Y-90838095D01*
X87947619Y-90790476D01*
X88042857Y-90742857D01*
X88185714Y-90742857D01*
X88280952Y-90790476D01*
X88328571Y-90838095D01*
X88376190Y-90933333D01*
X88376190Y-91314285D01*
X88852380Y-89790476D02*
X88852380Y-90361904D01*
X88852380Y-90076190D02*
X87852380Y-90076190D01*
X87995238Y-90171428D01*
X88090476Y-90266666D01*
X88138095Y-90361904D01*
X87852380Y-89171428D02*
X87852380Y-89076190D01*
X87900000Y-88980952D01*
X87947619Y-88933333D01*
X88042857Y-88885714D01*
X88233333Y-88838095D01*
X88471428Y-88838095D01*
X88661904Y-88885714D01*
X88757142Y-88933333D01*
X88804761Y-88980952D01*
X88852380Y-89076190D01*
X88852380Y-89171428D01*
X88804761Y-89266666D01*
X88757142Y-89314285D01*
X88661904Y-89361904D01*
X88471428Y-89409523D01*
X88233333Y-89409523D01*
X88042857Y-89361904D01*
X87947619Y-89314285D01*
X87900000Y-89266666D01*
X87852380Y-89171428D01*
%TO.C,R11*%
X91452380Y-90742857D02*
X90976190Y-91076190D01*
X91452380Y-91314285D02*
X90452380Y-91314285D01*
X90452380Y-90933333D01*
X90500000Y-90838095D01*
X90547619Y-90790476D01*
X90642857Y-90742857D01*
X90785714Y-90742857D01*
X90880952Y-90790476D01*
X90928571Y-90838095D01*
X90976190Y-90933333D01*
X90976190Y-91314285D01*
X91452380Y-89790476D02*
X91452380Y-90361904D01*
X91452380Y-90076190D02*
X90452380Y-90076190D01*
X90595238Y-90171428D01*
X90690476Y-90266666D01*
X90738095Y-90361904D01*
X91452380Y-88838095D02*
X91452380Y-89409523D01*
X91452380Y-89123809D02*
X90452380Y-89123809D01*
X90595238Y-89219047D01*
X90690476Y-89314285D01*
X90738095Y-89409523D01*
%TO.C,J12*%
X71022380Y-43809523D02*
X71736666Y-43809523D01*
X71879523Y-43857142D01*
X71974761Y-43952380D01*
X72022380Y-44095238D01*
X72022380Y-44190476D01*
X72022380Y-42809523D02*
X72022380Y-43380952D01*
X72022380Y-43095238D02*
X71022380Y-43095238D01*
X71165238Y-43190476D01*
X71260476Y-43285714D01*
X71308095Y-43380952D01*
X71117619Y-42428571D02*
X71070000Y-42380952D01*
X71022380Y-42285714D01*
X71022380Y-42047619D01*
X71070000Y-41952380D01*
X71117619Y-41904761D01*
X71212857Y-41857142D01*
X71308095Y-41857142D01*
X71450952Y-41904761D01*
X72022380Y-42476190D01*
X72022380Y-41857142D01*
%TO.C,R12*%
X73152380Y-47942857D02*
X72676190Y-48276190D01*
X73152380Y-48514285D02*
X72152380Y-48514285D01*
X72152380Y-48133333D01*
X72200000Y-48038095D01*
X72247619Y-47990476D01*
X72342857Y-47942857D01*
X72485714Y-47942857D01*
X72580952Y-47990476D01*
X72628571Y-48038095D01*
X72676190Y-48133333D01*
X72676190Y-48514285D01*
X73152380Y-46990476D02*
X73152380Y-47561904D01*
X73152380Y-47276190D02*
X72152380Y-47276190D01*
X72295238Y-47371428D01*
X72390476Y-47466666D01*
X72438095Y-47561904D01*
X72247619Y-46609523D02*
X72200000Y-46561904D01*
X72152380Y-46466666D01*
X72152380Y-46228571D01*
X72200000Y-46133333D01*
X72247619Y-46085714D01*
X72342857Y-46038095D01*
X72438095Y-46038095D01*
X72580952Y-46085714D01*
X73152380Y-46657142D01*
X73152380Y-46038095D01*
%TO.C,R13*%
X75902380Y-47942857D02*
X75426190Y-48276190D01*
X75902380Y-48514285D02*
X74902380Y-48514285D01*
X74902380Y-48133333D01*
X74950000Y-48038095D01*
X74997619Y-47990476D01*
X75092857Y-47942857D01*
X75235714Y-47942857D01*
X75330952Y-47990476D01*
X75378571Y-48038095D01*
X75426190Y-48133333D01*
X75426190Y-48514285D01*
X75902380Y-46990476D02*
X75902380Y-47561904D01*
X75902380Y-47276190D02*
X74902380Y-47276190D01*
X75045238Y-47371428D01*
X75140476Y-47466666D01*
X75188095Y-47561904D01*
X74902380Y-46657142D02*
X74902380Y-46038095D01*
X75283333Y-46371428D01*
X75283333Y-46228571D01*
X75330952Y-46133333D01*
X75378571Y-46085714D01*
X75473809Y-46038095D01*
X75711904Y-46038095D01*
X75807142Y-46085714D01*
X75854761Y-46133333D01*
X75902380Y-46228571D01*
X75902380Y-46514285D01*
X75854761Y-46609523D01*
X75807142Y-46657142D01*
%TD*%
M02*
