M48
; DRILL file {KiCad 5.1.7-a382d34a8~88~ubuntu18.04.1} date Mon Feb 15 16:21:52 2021
; FORMAT={-:-/ absolute / metric / decimal}
; #@! TF.CreationDate,2021-02-15T16:21:52+09:00
; #@! TF.GenerationSoftware,Kicad,Pcbnew,5.1.7-a382d34a8~88~ubuntu18.04.1
; #@! TF.FileFunction,Plated,1,2,PTH
FMAT,2
METRIC
T1C0.400
T2C1.000
%
G90
G05
T1
X66.6Y-88.1
X67.9Y-67.2
X68.7Y-88.1
X70.7Y-88.1
X72.4Y-88.1
X83.1Y-63.9
X83.6Y-74.4
X85.3Y-74.3
X90.5Y-73.9
X91.4Y-78.0
X91.9Y-47.9
X91.9Y-56.9
X91.9Y-87.6
T2
X65.0Y-97.0
X67.54Y-97.0
X70.08Y-97.0
X72.62Y-97.0
X75.16Y-97.0
X97.0Y-44.0
X97.0Y-46.54
X82.0Y-43.0
X84.54Y-43.0
X87.08Y-43.0
X97.0Y-80.0
X97.0Y-82.54
X63.0Y-52.16
X63.0Y-54.7
X63.0Y-57.24
X63.0Y-59.78
X63.0Y-62.32
X63.0Y-64.86
X63.0Y-67.4
X63.0Y-69.94
X63.0Y-72.48
X63.0Y-75.02
X63.0Y-77.56
X63.0Y-80.1
X63.0Y-82.64
X63.0Y-85.18
X63.0Y-87.72
X97.0Y-90.0
X97.0Y-92.54
X65.0Y-43.0
X67.54Y-43.0
X78.22Y-52.16
X78.22Y-54.7
X78.22Y-57.24
X78.22Y-59.78
X78.22Y-62.32
X78.22Y-64.86
X78.22Y-67.4
X78.22Y-69.94
X78.22Y-72.48
X78.22Y-75.02
X78.22Y-77.56
X78.22Y-80.1
X78.22Y-82.64
X78.22Y-85.18
X78.22Y-87.72
X83.38Y-97.0
X85.92Y-97.0
X88.46Y-97.0
X91.0Y-97.0
X97.0Y-53.0
X97.0Y-55.54
X97.0Y-62.0
X97.0Y-64.54
X97.0Y-67.08
X97.0Y-69.62
X97.0Y-72.16
T0
M30
